<svg id="Calque_1" data-name="Calque 1" xmlns="http://www.w3.org/2000/svg" viewBox="0 0 263.44 162.29"><defs><style>.cls-1,.cls-3,.cls-4,.cls-5{fill:#fff;}.cls-2{fill:#2e3192;}.cls-3{font-size:129.26px;font-family:BerlinSansFB-Reg, Berlin Sans FB;}.cls-3,.cls-4,.cls-5{stroke:#2e3192;stroke-miterlimit:10;stroke-width:0.5px;}.cls-5{font-size:83.8px;font-family:OCRAExtended, OCR A Extended;}</style></defs><title>loogo</title><path class="cls-1" d="M430.07,310.15H396.2v31.41h37.74V351H385V263.88H432v9.43H396.2v27.54h33.87Z" transform="translate(-317.92 -235.04)"/><path class="cls-2" d="M430.07,304.15H396.2a6.09,6.09,0,0,0-6,6v31.41a6.08,6.08,0,0,0,6,6h37.74l-6-6V351l6-6H385l6,6V263.88l-6,6H432l-6-6v9.43l6-6H396.2a6.09,6.09,0,0,0-6,6v27.54a6.09,6.09,0,0,0,6,6h33.87l-6-6v9.3c0,7.72,12,7.74,12,0v-9.3a6.08,6.08,0,0,0-6-6H396.2l6,6V273.31l-6,6H432a6.09,6.09,0,0,0,6-6v-9.43a6.08,6.08,0,0,0-6-6H385a6.09,6.09,0,0,0-6,6V351a6.09,6.09,0,0,0,6,6h49a6.08,6.08,0,0,0,6-6v-9.44a6.08,6.08,0,0,0-6-6H396.2l6,6V310.15l-6,6h33.87C437.79,316.15,437.8,304.15,430.07,304.15Z" transform="translate(-317.92 -235.04)"/><path class="cls-1" d="M471.61,263.88h11.25v77.68h37.23V351H471.61Z" transform="translate(-317.92 -235.04)"/><path class="cls-2" d="M471.61,269.88h11.25l-6-6v77.68a6.08,6.08,0,0,0,6,6h37.23l-6-6V351l6-6H471.61l6,6V263.88c0-7.72-12-7.74-12,0V351a6.09,6.09,0,0,0,6,6h48.48a6.09,6.09,0,0,0,6-6v-9.44a6.09,6.09,0,0,0-6-6H482.86l6,6V263.88a6.08,6.08,0,0,0-6-6H471.61C463.89,257.88,463.88,269.88,471.61,269.88Z" transform="translate(-317.92 -235.04)"/><text class="cls-3" transform="translate(7.74 109.15)">{</text><text class="cls-3" transform="translate(209.85 109.15)">}</text><path class="cls-4" d="M343.66,387.11H330.27v2.69h15.28l-1.34,6.63h-26V371.31h26v6.62H330.27v2.55h13.39Z" transform="translate(-317.92 -235.04)"/><path class="cls-4" d="M358.25,390.28c.23.91,1.15,1.42,2.48,1.42,1,0,1.71-.15,1.71-.77s-1.16-.87-4.33-1.35c-8.88-1.31-10-3.86-10-6.55s2.4-6.48,12.11-6.48c8.56,0,12.1,3.17,12.42,6.12H362.34c-.18-.84-.83-1.31-2.21-1.31-1,0-1.47.29-1.47.72,0,.59,1,.77,5.16,1.46,6.85,1.13,9.61,3.06,9.61,6.48,0,4-3.49,6.92-13,6.92-8.56,0-12.43-3.24-12.89-6.66Z" transform="translate(-317.92 -235.04)"/><path class="cls-4" d="M408.41,387.47c-1,6.12-6.45,9.61-16.25,9.61-10.77,0-16.29-5.42-16.29-13s5-13.47,16.89-13.47c10.54,0,15.05,4.73,15.46,9.36H395.75c-.18-1.93-1.06-3.13-3.17-3.13-3,0-3.64,2.66-3.64,6.91,0,3.79.51,7,3.59,7,2.44,0,3.08-1.6,3.36-3.35Z" transform="translate(-317.92 -235.04)"/><path class="cls-4" d="M437.44,389.66a61.7,61.7,0,0,0,.23,6.77h-10.9a7.3,7.3,0,0,1-.46-1.86c-1.66,1.49-3.82,2.37-7.23,2.37-4.69,0-8.51-2.08-8.51-6.3,0-4.77,4.78-6.59,12.84-6.59h2.39V383c0-1.12-.46-1.53-1.52-1.53s-1.52.62-1.61,1.64h-11c.23-2.55,1.93-6.55,12.75-6.55,10.45,0,13,3.17,13,7.86ZM425.8,388h-1.15c-1.75,0-2.35.69-2.35,1.68a1.45,1.45,0,0,0,1.61,1.45c1.52,0,1.89-.73,1.89-2.33Z" transform="translate(-317.92 -235.04)"/><path class="cls-4" d="M441.63,371.31h12.75V389.8h13.71l-1.34,6.63H441.63Z" transform="translate(-317.92 -235.04)"/><path class="cls-4" d="M482.54,388.46c0,1.71.27,3.09,2,3.09a1.79,1.79,0,0,0,2-1.53h11.82c-1,3-3.91,6.92-13.94,6.92-11.23,0-14.31-5.28-14.31-10.27,0-5.28,3.72-10.12,14.36-10.12,11.22,0,14.08,5.64,14.08,10.19,0,.62-.05,1.24-.09,1.72Zm3.72-4.23c0-1.38-.13-2.51-1.84-2.51-1.38,0-1.88,1-1.88,2.51Z" transform="translate(-317.92 -235.04)"/><path class="cls-4" d="M527.77,389.66a61.7,61.7,0,0,0,.23,6.77H517.09a8.25,8.25,0,0,1-.46-1.86c-1.65,1.49-3.82,2.37-7.22,2.37-4.7,0-8.51-2.08-8.51-6.3,0-4.77,4.78-6.59,12.84-6.59h2.39V383c0-1.12-.46-1.53-1.52-1.53s-1.52.62-1.61,1.64H502c.23-2.55,1.93-6.55,12.75-6.55,10.44,0,13,3.17,13,7.86ZM516.13,388H515c-1.75,0-2.35.69-2.35,1.68a1.45,1.45,0,0,0,1.61,1.45c1.52,0,1.89-.73,1.89-2.33Z" transform="translate(-317.92 -235.04)"/><path class="cls-4" d="M531.82,383.18c0-2-.05-4.45-.09-6.12h12A22.12,22.12,0,0,1,544,380c.78-1.38,2.85-3.35,7.09-3.42v8.52c-5.62-.22-6.95.91-6.95,3.89v7.47H531.82Z" transform="translate(-317.92 -235.04)"/><path class="cls-4" d="M554,382.34c0-1.75,0-3.53-.09-5.28h12.11a13.58,13.58,0,0,1,.27,1.82,9.89,9.89,0,0,1,6.95-2.33c4.74,0,7.82,2.44,7.82,7.06v12.82H568.86V384.81c0-1.6-.46-1.85-1.24-1.85s-1.29.54-1.29,2.18v11.29H554Z" transform="translate(-317.92 -235.04)"/><text class="cls-5" transform="translate(108 129.96)">s</text></svg>